<svg width="1045" height="833" viewBox="0 0 1045 833" fill="none" xmlns="http://www.w3.org/2000/svg">
<g clip-path="url(#clip0)">
<path opacity="0.1" d="M502.68 832.56C740.566 832.56 933.41 819.182 933.41 802.68C933.41 786.178 740.566 772.8 502.68 772.8C264.794 772.8 71.95 786.178 71.95 802.68C71.95 819.182 264.794 832.56 502.68 832.56Z" fill="#9381FF"/>
<path opacity="0.1" d="M34.06 95.12C7.22002 126.54 0.430017 166.37 0.0600166 204.56C-0.199983 231.49 3.48002 260.7 25.96 280.56C55.55 306.69 112.36 311.84 127.02 345.23C140.02 374.9 109.77 404.75 80.71 425.69C51.65 446.63 18.28 472.27 23.71 503.45C27.15 523.36 46.02 538.99 64.84 552.11C100.62 577.11 140.84 598.98 186.18 609.62C268.44 628.9 357.29 608.94 434.37 578.72C481.82 560.12 536.91 537.29 584.03 556.42C596.47 561.47 607.03 569.1 618.5 575.42C651.85 593.69 692.58 600.42 732.22 606.13C790.32 614.53 851.38 621.54 907.36 606.39C963.34 591.24 1011.72 546.93 1003.15 499.67C995.07 455.15 943.63 426.13 902.64 395.72C888.18 384.99 873.46 370.77 877.06 355.16C879.92 342.78 893.38 334.16 905.38 326.16C968.54 283.82 1014.96 225.37 1036.3 161.28C1046.38 131.04 1050.02 96.2 1027.53 70.7C1009.39 50.13 978.3 40.25 948.73 32.12C893.86 17.03 837.62 4.28 779.91 0.840002C722.2 -2.6 662.58 3.96 611.35 25.73C586.78 36.18 564.51 49.94 539.7 60C469.26 88.56 386.26 84.72 307.7 80.21C279.63 78.6 250.29 75.74 225.92 63.48C204.92 52.9 192.92 45.32 166.92 44.14C115.96 41.83 63.24 60.9 34.06 95.12Z" fill="#9381FF"/>
<path d="M414.46 310.36L413.36 312.63L406.23 327.28L331.44 480.85L204.53 791.81L186.39 791.95L313.37 480.85L399.9 303.15L406.23 306.28L413.36 309.81L414.46 310.36Z" fill="#6A52FF" fill-opacity="0.94"/>
<path d="M637.12 791.95L622.19 791.81L495.27 480.85L422.45 331.31L413.36 312.63L412.25 310.36L413.36 309.81L422.45 305.31L426.82 303.15L512.05 480.85L637.12 791.95Z" fill="#6A52FF" fill-opacity="0.94"/>
<path d="M422.46 261.38H406.23V791.95H422.46V261.38Z" fill="#6A52FF" fill-opacity="0.94"/>
<path d="M412.49 173.97C407.015 173.975 401.766 176.153 397.894 180.024C394.023 183.896 391.845 189.145 391.84 194.62V202C391.779 204.751 392.269 207.486 393.28 210.045C394.291 212.604 395.802 214.935 397.726 216.902C399.65 218.869 401.948 220.431 404.484 221.498C407.02 222.565 409.744 223.114 412.495 223.114C415.246 223.114 417.97 222.565 420.506 221.498C423.042 220.431 425.34 218.869 427.264 216.902C429.188 214.935 430.699 212.604 431.71 210.045C432.721 207.486 433.21 204.751 433.15 202V194.62C433.142 189.144 430.962 183.895 427.089 180.023C423.216 176.152 417.966 173.975 412.49 173.97V173.97ZM427.98 201.97C427.98 206.081 426.347 210.023 423.44 212.93C420.533 215.837 416.591 217.47 412.48 217.47C408.369 217.47 404.427 215.837 401.52 212.93C398.613 210.023 396.98 206.081 396.98 201.97V194.59C396.98 190.479 398.613 186.537 401.52 183.63C404.427 180.723 408.369 179.09 412.48 179.09C416.591 179.09 420.533 180.723 423.44 183.63C426.347 186.537 427.98 190.479 427.98 194.59V201.97Z" fill="#535461"/>
<path opacity="0.1" d="M512.05 480.85H495.27L422.45 331.31V480.85H406.23V327.28L331.44 480.85H313.37L399.9 303.15L406.23 306.28V261.38H422.45V305.31L426.82 303.15L512.05 480.85Z" fill="black"/>
<path opacity="0.1" d="M433.15 195.36V202C433.21 204.751 432.721 207.486 431.71 210.045C430.699 212.604 429.188 214.935 427.264 216.902C425.34 218.869 423.042 220.431 420.506 221.498C417.97 222.565 415.246 223.114 412.495 223.114C409.744 223.114 407.02 222.565 404.484 221.498C401.948 220.431 399.65 218.869 397.726 216.902C395.802 214.935 394.291 212.604 393.28 210.045C392.269 207.486 391.779 204.751 391.84 202V195.36H397V202C397 206.111 398.633 210.053 401.54 212.96C404.447 215.867 408.389 217.5 412.5 217.5C416.611 217.5 420.553 215.867 423.46 212.96C426.367 210.053 428 206.111 428 202V195.36H433.15Z" fill="black"/>
<path d="M724.54 196.84H100.45V478.64H724.54V196.84Z" fill="#6A52FF" fill-opacity="0.94"/>
<path d="M712 205.69H111.52V462.41H712V205.69Z" fill="white"/>
<g opacity="0.2">
<path opacity="0.2" d="M199.21 233.6H170.82V246.53H199.21V233.6Z" fill="#007BFF"/>
</g>
<g opacity="0.2">
<path opacity="0.2" d="M199.21 258.61H170.82V271.54H199.21V258.61Z" fill="#007BFF"/>
</g>
<g opacity="0.2">
<path opacity="0.2" d="M199.21 283.61H170.82V296.54H199.21V283.61Z" fill="#007BFF"/>
</g>
<g opacity="0.2">
<path opacity="0.2" d="M199.21 308.61H170.82V321.54H199.21V308.61Z" fill="#007BFF"/>
</g>
<g opacity="0.2">
<path opacity="0.2" d="M199.21 333.62H170.82V346.55H199.21V333.62Z" fill="#007BFF"/>
</g>
<g opacity="0.2">
<path opacity="0.2" d="M199.21 358.62H170.82V371.55H199.21V358.62Z" fill="#007BFF"/>
</g>
<g opacity="0.2">
<path opacity="0.2" d="M199.21 383.62H170.82V396.55H199.21V383.62Z" fill="#007BFF"/>
</g>
<g opacity="0.2">
<path opacity="0.2" d="M199.21 408.62H170.82V421.55H199.21V408.62Z" fill="#007BFF"/>
</g>
<g opacity="0.2">
<path opacity="0.2" d="M252.66 421.56H224.27V434.49H252.66V421.56Z" fill="#007BFF"/>
</g>
<g opacity="0.2">
<path opacity="0.2" d="M302.67 421.56H274.28V434.49H302.67V421.56Z" fill="#007BFF"/>
</g>
<g opacity="0.2">
<path opacity="0.2" d="M352.67 421.56H324.28V434.49H352.67V421.56Z" fill="#007BFF"/>
</g>
<g opacity="0.2">
<path opacity="0.2" d="M402.68 421.56H374.29V434.49H402.68V421.56Z" fill="#007BFF"/>
</g>
<g opacity="0.2">
<path opacity="0.2" d="M452.68 421.56H424.29V434.49H452.68V421.56Z" fill="#007BFF"/>
</g>
<g opacity="0.2">
<path opacity="0.2" d="M502.69 421.56H474.3V434.49H502.69V421.56Z" fill="#007BFF"/>
</g>
<g opacity="0.2">
<path opacity="0.2" d="M552.69 421.56H524.3V434.49H552.69V421.56Z" fill="#007BFF"/>
</g>
<g opacity="0.2">
<path opacity="0.2" d="M602.7 421.56H574.31V434.49H602.7V421.56Z" fill="#007BFF"/>
</g>
<g opacity="0.2">
<path opacity="0.2" d="M652.7 421.56H624.31V434.49H652.7V421.56Z" fill="#007BFF"/>
</g>
<path d="M252.66 327.58H224.27V408.62H252.66V327.58Z" fill="#9381FF"/>
<path d="M302.67 290.08H274.28V408.63H302.67V290.08Z" fill="#9381FF"/>
<path d="M352.67 258.61H324.28V408.63H352.67V258.61Z" fill="#9381FF"/>
<path d="M402.68 274.92H374.29V408.62H402.68V274.92Z" fill="#9381FF"/>
<path d="M452.68 246.54H424.29V408.63H452.68V246.54Z" fill="#9381FF"/>
<g opacity="0.2">
<path opacity="0.2" d="M502.69 308.61H474.3V408.62H502.69V308.61Z" fill="#007BFF"/>
</g>
<g opacity="0.2">
<path opacity="0.2" d="M552.69 308.61H524.3V408.62H552.69V308.61Z" fill="#007BFF"/>
</g>
<g opacity="0.2">
<path opacity="0.2" d="M602.7 308.61H574.31V408.62H602.7V308.61Z" fill="#007BFF"/>
</g>
<g opacity="0.2">
<path opacity="0.2" d="M652.7 308.61H624.31V408.62H652.7V308.61Z" fill="#007BFF"/>
</g>
<path d="M621.05 308.39L377.95 323.35V328.09L626.23 318.24L621.05 308.39Z" fill="#535461"/>
<path d="M908.87 407.15C908.87 407.15 921.59 386.23 918.21 353.41C914.83 320.59 902.6 267.47 902.6 267.47C902.6 267.47 907.91 237.71 879.11 233.53C879.11 233.53 861.21 230.2 848.41 222.15C843.65 219.15 839.6 215.52 837.41 211.15C837.41 211.15 837.24 211.64 836.91 212.54C836.627 212.09 836.367 211.626 836.13 211.15C836.13 211.15 836.06 211.33 835.95 211.65L831.06 204.03C831.06 204.03 830.39 204.74 829.26 205.91C827.293 203.087 825.618 200.071 824.26 196.91C825.476 196.616 826.669 196.235 827.83 195.77C828.94 195.403 829.941 194.763 830.74 193.91C831.441 192.937 831.894 191.808 832.06 190.62C832.84 186.819 833.062 182.925 832.72 179.06C832.45 176.06 831.84 173.06 832.05 170.01C832.27 166.76 833.42 163.62 833.58 160.36C833.86 154.62 831.01 149.16 827.49 144.61C825.39 141.9 823.03 139.38 821.21 136.48C819.63 133.96 818.48 131.18 816.78 128.73C812.78 123.03 806.11 119.67 799.27 118.48C792.43 117.29 785.39 118.03 778.54 119.16C772.54 120.16 766.54 121.61 760.54 121.96C755.3 122.26 751.03 120.49 746.23 123.96C744.64 125.132 743.32 126.631 742.357 128.356C741.395 130.081 740.813 131.992 740.65 133.96C740.572 134.63 740.623 135.309 740.8 135.96C741.083 136.635 741.418 137.286 741.8 137.91C743.93 142.11 740.69 147.1 741.11 151.79C741.366 153.864 742.315 155.79 743.804 157.257C745.292 158.724 747.233 159.645 749.31 159.87C749.12 160.27 748.91 160.66 748.73 161.07C746.074 167.07 744.88 173.615 745.245 180.167C745.61 186.718 747.524 193.09 750.83 198.758C754.136 204.426 758.739 209.229 764.262 212.772C769.785 216.315 776.07 218.498 782.6 219.14L784.46 220.57C788.66 223.82 793.38 227.71 797.93 231.94L797.84 232.01L797.1 231.59C795.715 232.686 794.258 233.688 792.74 234.59C788.53 237.17 781.74 240.52 774.1 240.9C774.1 240.9 760.42 248.15 755.71 272.06C748.95 278.12 734.48 289.06 715.36 291.91C688.49 295.91 655.36 297.22 655.36 297.22C655.36 297.22 655.09 297.7 654.71 298.58L651.65 298.02C651.65 298.02 651.65 298.39 651.52 299.02L650.32 298.48C640.83 294.33 621.87 288.28 619.47 304.95C616.25 327.31 637.57 324.74 637.57 324.74C641.786 323.138 646.106 321.825 650.5 320.81L651.69 320.58C651.892 321.163 652.175 321.715 652.53 322.22H655.43C656.437 324.304 657.654 326.281 659.06 328.12L726.64 326.64C726.64 326.64 738.19 324.12 748.85 325.72C744.2 360.48 738.71 398.6 738.71 398.6C738.71 398.6 727.21 458.97 735.26 465.28C739.932 463.721 744.694 462.446 749.52 461.46C749.593 465.19 749.988 468.908 750.7 472.57L755.85 506.28C755.85 506.28 757.85 540.72 764.54 561.28L770.44 589.38L775.38 610.62L778.16 646.67C781.978 661.942 784.738 677.459 786.42 693.11C789.03 717.33 803.2 756.47 805.09 761.62C800.25 768.47 790.31 780.09 777.84 781.29C760.04 783.01 759.61 793.74 772.05 797.6C784.49 801.46 810.67 797.6 810.67 797.6L847.59 788.47C846.48 795.28 845.9 800.66 846.71 801.24C849.07 802.96 884.9 812.24 886.19 797.38C886.29 796.153 886.38 794.963 886.46 793.81C886.993 784.291 885.721 774.756 882.71 765.71C882.42 764.82 882.16 763.92 881.93 763.02C882.461 762.426 882.949 761.794 883.39 761.13C883.39 761.13 885.97 721.01 887.9 706.63C888.05 705.48 888.15 704.08 888.2 702.5C889.09 685.26 882.8 639.91 882.8 639.91C882.8 639.91 875.03 610.41 875.32 596.85C875.365 595.723 875.556 594.607 875.89 593.53C875.89 593.53 875.89 593.26 875.79 592.81C875.79 592.62 875.88 592.42 875.94 592.24C875.94 592.24 872 565.24 872.55 549.18C872.627 546.784 872.962 544.404 873.55 542.08C874.175 539.029 874.494 535.924 874.5 532.81C875 521.81 874.42 502.81 873.62 484.99C873.71 484.69 873.8 484.39 873.87 484.04C874.031 482.621 873.864 481.184 873.38 479.84C873.32 478.69 873.27 477.55 873.21 476.42C873.54 475.29 873.81 474.09 874.05 472.85H874.57V472.92C874.57 472.92 908.19 471.31 915.92 462.3C915.92 462.3 908.11 438.03 903.78 418.3L908.87 407.15ZM763.99 331.66L763.46 331.47C764.31 328.47 765.32 324.98 766.46 321.32C765.49 325.28 764.65 328.88 763.99 331.66ZM798.11 232.17L798.26 232.31L798.1 232.22L798.11 232.17ZM840.11 752.69C838.3 746.46 831.11 721.06 831.34 708.95C831.39 707.897 831.575 706.856 831.89 705.85C832.557 703.655 832.894 701.374 832.89 699.08C833.61 686.44 828.77 663.79 828.77 663.79C828.77 663.79 817.94 633.24 818.77 608.98C818.77 608.37 818.84 607.76 818.88 607.15C819.06 604.85 819.2 602.36 819.3 599.73V599.68C819.71 590.31 819.62 579.03 819.35 568.51L819.29 568.12C818.92 554.19 818.23 541.65 817.94 536.69C818.94 543.86 825.34 588.49 828.1 595.79C828.1 595.79 829.61 616.38 836.47 633.79L843.99 679.05C843.99 679.05 845.92 732.91 849.13 748.14C850.57 754.92 851.79 759.49 852.7 762.47C851.4 768.54 849.3 778.71 847.89 787.13C847.06 781.64 844.14 760.72 840.12 752.69H840.11Z" fill="url(#paint0_linear)"/>
<path d="M807.96 754.08C807.96 754.08 795.41 776.83 777.76 778.53C760.11 780.23 759.69 790.86 772.02 794.69C784.35 798.52 810.3 794.69 810.3 794.69L847.3 785.55C847.3 785.55 842.83 748.97 836.88 747.06C830.93 745.15 807.96 754.08 807.96 754.08Z" fill="#4C4C78"/>
<path d="M853.06 754.5C853.06 754.5 843.7 796.6 846.06 798.31C848.42 800.02 883.91 809.15 885.19 794.48C885.29 793.247 885.38 792.067 885.46 790.94C885.984 781.505 884.722 772.056 881.74 763.09C880.74 760.09 880.04 756.88 880.3 754.5C880.89 748.55 853.06 754.5 853.06 754.5Z" fill="#4C4C78"/>
<path d="M841.45 221.49C841.45 221.49 812.74 292.01 817.85 269.36C821.23 254.36 799.38 234.43 784.27 222.72C776.58 216.72 770.64 212.91 770.64 212.91C770.64 212.91 824.54 150.07 820.72 177.18C819.672 184.605 820.689 192.175 823.66 199.06C829.61 213.2 841.45 221.49 841.45 221.49Z" fill="#FFB9B9"/>
<path d="M658.06 321.67C656.54 321.28 654.06 321.53 651.49 322.08C647.137 323.085 642.857 324.385 638.68 325.97C638.68 325.97 617.55 328.52 620.74 306.36C623.11 289.84 641.9 295.84 651.31 299.94C654.51 301.35 656.63 302.53 656.63 302.53L658.06 321.67Z" fill="#FFB9B9"/>
<path opacity="0.1" d="M658.06 321.67C656.54 321.28 654.06 321.53 651.49 322.08C649.19 316.28 650.94 302.53 651.31 299.94C654.51 301.35 656.63 302.53 656.63 302.53L658.06 321.67Z" fill="black"/>
<path d="M658.15 300.51L652.62 299.51C652.62 299.51 649.79 318.51 653.49 323.51H659.85L658.15 300.51Z" fill="#CBCDDA"/>
<path d="M769.06 335.18C769.06 335.18 752.16 325.07 750.14 337.83C748.12 350.59 745.46 372.39 745.46 372.39L740.78 400.14L734.72 455.74L735.57 465.2C735.57 465.2 753.57 459.14 757.79 461.27C762.01 463.4 765.45 437.88 765.45 437.88L772.45 411.51L773.51 355.59L769.06 335.18Z" fill="#4C4C78"/>
<path opacity="0.1" d="M769.06 335.18C769.06 335.18 752.16 325.07 750.14 337.83C748.12 350.59 745.46 372.39 745.46 372.39L740.78 400.14L734.72 455.74L735.57 465.2C735.57 465.2 753.57 459.14 757.79 461.27C762.01 463.4 765.45 437.88 765.45 437.88L772.45 411.51L773.51 355.59L769.06 335.18Z" fill="black"/>
<path d="M759.95 269.68C759.95 269.68 742.41 289.46 715.78 293.44C689.15 297.42 656.29 298.71 656.29 298.71C656.29 298.71 648 313.54 659.96 329.33L726.96 327.85C726.96 327.85 741.79 324.63 753.28 327.85L759.95 269.68Z" fill="#4C4C78"/>
<path opacity="0.05" d="M759.95 269.68C759.95 269.68 742.41 289.46 715.78 293.44C689.15 297.42 656.29 298.71 656.29 298.71C656.29 298.71 648 313.54 659.96 329.33L726.96 327.85C726.96 327.85 741.79 324.63 753.28 327.85L759.95 269.68Z" fill="black"/>
<path opacity="0.1" d="M820.82 198.45C814.28 212.45 802.91 222.77 786.42 222.77C785.69 222.77 784.98 222.77 784.27 222.72C776.58 216.72 770.64 212.91 770.64 212.91C770.64 212.91 824.54 150.07 820.72 177.18C819.54 185.48 818.19 192.22 820.82 198.45Z" fill="black"/>
<path d="M827.5 180.4C827.494 188.526 825.079 196.468 820.56 203.221C816.041 209.975 809.621 215.237 802.111 218.342C794.602 221.447 786.341 222.256 778.372 220.666C770.403 219.076 763.084 215.16 757.341 209.411C751.598 203.662 747.688 196.34 746.106 188.369C744.524 180.399 745.341 172.138 748.454 164.632C751.566 157.125 756.834 150.71 763.592 146.198C770.35 141.685 778.294 139.278 786.42 139.28C791.821 139.269 797.171 140.326 802.162 142.389C807.154 144.453 811.688 147.482 815.506 151.303C819.323 155.124 822.348 159.661 824.406 164.655C826.464 169.648 827.516 174.999 827.5 180.4Z" fill="#FFB9B9"/>
<path d="M852.61 431.5C852.61 431.5 760.97 439.59 757.61 427.89C754.25 416.19 766.96 384.51 766.96 384.51L762.82 340.28L762.67 338.59C762.67 338.59 774.15 290.74 773.73 286.92C773.33 283.48 792.21 243.33 796.09 235.12C796.55 234.17 796.79 233.65 796.79 233.65L797.52 234.07L797.84 234.26L802.33 236.88L820.06 232.68L841.43 221.49L843.43 343.9L852.61 431.5Z" fill="#CBCDDA"/>
<path opacity="0.1" d="M804.98 235.13C804.98 235.13 798.71 233.43 796.26 239.7C795.301 242.395 794.165 245.024 792.86 247.57L790.42 262.13L785.95 285.13L782.65 386.88L784.14 404.95L792.33 390.39L793.82 295.28V283.45C794.3 273.222 796.609 263.163 800.64 253.75L801.78 251.08L808.9 241.93L804.98 235.13Z" fill="black"/>
<path d="M803.71 233.85C803.71 233.85 797.43 232.15 794.99 238.42C794.029 241.116 792.89 243.745 791.58 246.29L789.14 260.86L784.67 283.86L781.38 385.61L782.87 403.69L791.06 389.08L792.55 294.03V282.17C793.039 271.943 795.349 261.886 799.37 252.47L800.52 249.8L807.64 240.66L803.71 233.85Z" fill="#4C4C78"/>
<path opacity="0.1" d="M830.5 207.59C830.5 207.59 808.81 230.59 801.15 233.32C801.15 233.32 804.98 250.76 808.81 254.16C808.81 254.16 831.57 230.95 835.6 229.07L838.98 220.8L830.5 207.59Z" fill="black"/>
<path d="M830.5 206.28C830.5 206.28 808.81 229.28 801.15 232.01C801.15 232.01 804.98 249.45 808.81 252.85C808.81 252.85 831.57 229.64 835.6 227.76L838.98 219.5L830.5 206.28Z" fill="#CBCDDA"/>
<path opacity="0.1" d="M798.06 233.65L797.84 234.25L790.89 252.88L778.46 288.03C778.46 288.03 778.35 288.39 778.13 289.03C776.07 295.43 765 330.16 762.82 340.25L762.67 338.56C762.67 338.56 774.15 290.71 773.73 286.89C773.33 283.45 792.21 243.3 796.09 235.09C796.71 234.67 797.19 234.31 797.52 234.04L798.06 233.65Z" fill="black"/>
<path d="M796.79 233.64L789.61 252.88L777.18 288.03C777.18 288.03 777.07 288.39 776.85 289.03C774.67 295.85 762.24 334.78 761.24 341.9C760.11 349.72 744.48 391.99 744.48 391.99L735.55 465.18C727.55 458.97 738.91 399.18 738.91 399.18C738.91 399.18 751.67 310.51 754.69 281.01C757.71 251.51 774 242.89 774 242.89C781.52 242.51 788.3 239.19 792.47 236.64C793.976 235.738 795.419 234.736 796.79 233.64V233.64Z" fill="#4C4C78"/>
<path opacity="0.1" d="M886.84 704.53C884.93 718.78 882.38 758.53 882.38 758.53C873.45 771.92 853.67 764.69 853.67 764.69C853.67 764.69 851.55 760.69 848.36 745.55C845.17 730.41 843.26 677.08 843.26 677.08L835.81 632.28C829.01 615.05 827.52 594.64 827.52 594.64C824.52 586.77 817.31 535.1 817.31 535.1C817.31 535.1 820.31 581.45 818.38 605.91C816.45 630.37 828.15 663.28 828.15 663.28C828.15 663.28 834.75 694.12 831.34 703.69C827.93 713.26 839.85 752.8 839.85 752.8C838.85 764.29 804.99 759.61 804.99 759.61C804.99 759.61 789.06 716.86 786.27 691.13C784.598 675.627 781.862 660.257 778.08 645.13L775.32 609.4L770.42 588.28L764.58 560.43C757.98 540.02 755.97 505.89 755.97 505.89L750.86 472.4C747.52 455.84 751.86 436.4 754.74 426.23C755.99 421.82 756.99 419.13 756.99 419.13C759.92 421.21 776.7 423.65 785.38 425.63C790.13 426.725 795.016 427.116 799.88 426.79C821.825 425.048 843.534 421.067 864.67 414.91C866.1 414.48 866.86 414.23 866.86 414.23L867.31 418.06L868.37 427.18L870.26 443.37C870.26 443.37 876 529.7 872.6 541.37C869.2 553.04 874.94 592.37 874.94 592.37C871.75 601.7 881.74 639.62 881.74 639.62C881.74 639.62 888.76 690.28 886.84 704.53Z" fill="black"/>
<path d="M886.84 703.28C884.93 717.53 882.38 757.28 882.38 757.28C873.45 770.68 853.67 763.44 853.67 763.44C853.67 763.44 851.55 759.44 848.36 744.31C845.17 729.18 843.26 675.83 843.26 675.83L835.81 630.97C829.06 613.74 827.52 593.28 827.52 593.28C824.52 585.41 817.31 533.74 817.31 533.74C817.31 533.74 820.31 580.09 818.38 604.55C816.45 629.01 828.15 661.96 828.15 661.96C828.15 661.96 834.75 692.8 831.34 702.37C827.93 711.94 839.85 751.49 839.85 751.49C838.85 762.97 804.99 758.29 804.99 758.29C804.99 758.29 789.06 715.59 786.27 689.85C784.598 674.347 781.862 658.977 778.08 643.85L775.32 608.13L770.42 587.08L764.58 559.23C757.98 538.81 755.97 504.68 755.97 504.68L750.86 471.19C747.52 454.63 751.86 435.19 754.74 425.02C755.99 420.62 756.99 417.93 756.99 417.93C759.92 420.01 776.7 422.44 785.38 424.42C790.13 425.52 795.016 425.911 799.88 425.58C821.825 423.838 843.534 419.857 864.67 413.7L866.86 413.03L867.31 416.85L868.37 425.98L870.26 442.17C870.26 442.17 876 528.49 872.6 540.17C869.2 551.85 874.94 591.17 874.94 591.17C871.75 600.49 881.74 638.41 881.74 638.41C881.74 638.41 888.76 689.01 886.84 703.28Z" fill="#474463"/>
<path opacity="0.1" d="M827.5 180.4C827.513 187.585 825.637 194.648 822.06 200.88C815.66 202.01 808.85 200.76 804.06 196.53C800.78 193.64 798.66 189.69 795.84 186.34C794.015 184.281 792.054 182.347 789.97 180.55C788.61 179.195 787.048 178.058 785.34 177.18C784.481 176.746 783.534 176.515 782.572 176.505C781.61 176.494 780.658 176.705 779.79 177.12C777.53 178.38 776.79 181.19 775.48 183.43C774.495 185.353 772.809 186.824 770.77 187.54C769.751 187.866 768.654 187.856 767.64 187.513C766.627 187.169 765.75 186.509 765.14 185.63C763.75 183.24 764.77 179.51 762.44 178.05C761.825 177.747 761.191 177.486 760.54 177.27C757.54 175.91 757.19 171.88 756.93 168.58C756.8 166.96 756.45 165.13 755.09 164.26C753.73 163.39 751.94 163.83 750.32 163.86C749.841 163.879 749.361 163.842 748.89 163.75C752.709 155.141 759.369 148.106 767.756 143.821C776.143 139.536 785.746 138.263 794.96 140.213C804.174 142.164 812.438 147.22 818.368 154.536C824.299 161.851 827.537 170.982 827.54 180.4H827.5Z" fill="black"/>
<path d="M746.37 126.96C744.791 128.125 743.48 129.615 742.526 131.33C741.572 133.045 740.997 134.944 740.84 136.9C740.764 137.554 740.815 138.216 740.99 138.85C741.269 139.523 741.604 140.172 741.99 140.79C744.09 144.96 740.88 149.9 741.29 154.55C741.568 156.747 742.634 158.768 744.289 160.239C745.943 161.71 748.076 162.531 750.29 162.55C751.91 162.55 753.69 162.07 755.06 162.95C756.43 163.83 756.77 165.65 756.9 167.27C757.16 170.57 757.49 174.6 760.5 175.96C761.149 176.181 761.783 176.442 762.4 176.74C764.74 178.2 763.72 181.94 765.11 184.32C765.72 185.199 766.597 185.859 767.61 186.203C768.624 186.546 769.721 186.556 770.74 186.23C772.775 185.517 774.458 184.049 775.44 182.13C776.73 179.88 777.5 177.13 779.76 175.82C780.627 175.401 781.578 175.188 782.541 175.196C783.503 175.205 784.451 175.436 785.31 175.87C787.018 176.752 788.58 177.892 789.94 179.25C792.026 181.044 793.987 182.979 795.81 185.04C798.63 188.38 800.75 192.33 804.03 195.22C810.21 200.65 819.67 201.22 827.29 198.09C828.39 197.723 829.382 197.091 830.18 196.25C830.876 195.283 831.325 194.16 831.49 192.98C832.264 189.215 832.486 185.358 832.15 181.53C831.88 178.53 831.27 175.53 831.48 172.53C831.69 169.31 832.84 166.2 833 162.98C833.28 157.28 830.45 151.87 827 147.36C824.92 144.67 822.58 142.18 820.78 139.3C819.21 136.8 818.07 134.05 816.39 131.63C812.45 125.98 805.81 122.63 799.03 121.46C792.25 120.29 785.28 121.01 778.49 122.14C772.57 123.14 766.61 124.56 760.61 124.91C755.36 125.28 751.13 123.51 746.37 126.96Z" fill="#472727"/>
<path opacity="0.1" d="M796.79 233.64L789.61 252.88L777.18 288.03C777.18 288.03 777.07 288.39 776.85 289.03V289.08L792.49 236.62C793.988 235.724 795.425 234.728 796.79 233.64V233.64Z" fill="black"/>
<path d="M874.41 453.83C874.41 453.83 875.15 477.11 868.88 482.96L852.19 451.49L866.19 444.68L874.41 453.83Z" fill="#FFB9B9"/>
<path opacity="0.1" d="M913.37 462.33C905.71 471.26 872.37 472.86 872.37 472.86L839.37 420.86C839.37 420.86 831.56 415.44 816.89 391.03C802.22 366.62 802.7 347.82 803.52 333.78C804.34 319.74 813.52 279.39 813.52 279.39C814.95 270.31 835.52 213.39 835.52 213.39C837.68 217.7 841.7 221.3 846.4 224.27C859.1 232.27 876.83 235.55 876.83 235.55C905.39 239.7 900.12 269.2 900.12 269.2C900.12 269.2 900.44 383.87 898.68 397.59C896.92 411.31 913.37 462.33 913.37 462.33Z" fill="black"/>
<path d="M874.84 458.29L873.88 466.8L862.29 462.55L853.79 449.68L860.17 444.68L874.84 458.29Z" fill="#CBCDDA"/>
<path opacity="0.1" d="M874.43 425.33L868.37 425.95L809.94 431.79C800.557 432.732 791.086 432.267 781.84 430.41L754.74 424.99C755.99 420.59 756.99 417.9 756.99 417.9C759.92 419.98 776.7 422.41 785.38 424.39C790.13 425.49 795.016 425.881 799.88 425.55C821.825 423.808 843.534 419.827 864.67 413.67L867.31 416.82L874.43 425.33Z" fill="black"/>
<g opacity="0.1">
<path opacity="0.1" d="M757.6 418.22C757.407 418.125 757.22 418.018 757.04 417.9C757.04 417.9 757.04 417.96 756.98 418.05L757.6 418.22Z" fill="black"/>
<path opacity="0.1" d="M881.79 638.4C881.79 638.4 871.79 600.48 874.99 591.16C874.99 591.16 869.25 551.86 872.66 540.16C876.07 528.46 870.31 442.16 870.31 442.16L868.42 425.97L867.36 416.84L866.92 413.02L864.72 413.69L863.36 414.09L863.53 415.57L864.59 424.69L866.48 440.88C866.48 440.88 872.22 527.21 868.83 538.88C865.44 550.55 871.16 589.88 871.16 589.88C867.97 599.21 877.96 637.12 877.96 637.12C877.96 637.12 884.96 687.74 883.07 701.98C881.18 716.22 878.6 755.98 878.6 755.98C872.08 765.77 859.77 764.55 853.6 763.18L853.71 763.42C853.71 763.42 873.49 770.66 882.42 757.26C882.42 757.26 884.97 717.49 886.89 703.26C888.81 689.03 881.79 638.4 881.79 638.4Z" fill="black"/>
<path opacity="0.1" d="M831.4 702.41C834.8 692.84 828.21 662 828.21 662C828.21 662 816.52 629 818.43 604.59C819.23 594.4 819.18 580.42 818.84 567.59C816.13 551.04 813.53 532.59 813.53 532.59C813.53 532.59 816.53 578.94 814.61 603.39C812.69 627.84 824.38 660.81 824.38 660.81C824.38 660.81 830.98 691.64 827.57 701.21C824.16 710.78 836.06 750.28 836.06 750.28C835.21 759.48 813.36 758.28 804.69 757.48L805.02 758.36C805.02 758.36 838.83 763.04 839.89 751.56C839.91 751.53 828 711.98 831.4 702.41Z" fill="black"/>
</g>
<path d="M914.64 462.33C906.99 471.26 873.64 472.86 873.64 472.86L840.64 420.86C840.64 420.86 832.83 415.44 818.15 391.03C803.47 366.62 803.97 347.82 804.78 333.78C805.59 319.74 814.78 279.39 814.78 279.39C816.21 270.31 836.78 213.39 836.78 213.39C838.93 217.7 842.95 221.3 847.66 224.27C860.36 232.27 878.09 235.55 878.09 235.55C906.64 239.7 901.37 269.2 901.37 269.2C901.37 269.2 901.69 383.87 899.93 397.59C898.17 411.31 914.64 462.33 914.64 462.33Z" fill="#4C4C78"/>
<path opacity="0.1" d="M842.89 241.61L835.71 244.28L840.49 247.63L804.79 333.75C805.62 319.75 814.79 279.36 814.79 279.36C816.22 270.28 836.79 213.36 836.79 213.36C838.94 217.67 842.96 221.27 847.67 224.24L842.89 241.61Z" fill="black"/>
<path opacity="0.1" d="M851.5 395.03L888.02 385.62L892.81 400.45L855.49 409.55L851.5 395.03Z" fill="black"/>
<path opacity="0.1" d="M872.39 247.67C872.39 247.67 855.8 263.28 862.06 298.07C868.32 332.86 878.33 370.63 878.33 370.63L851.33 445.43C851.33 445.43 870.15 465.05 879.4 467.43L906.35 407.62C906.35 407.62 918.95 386.89 915.6 354.36C912.25 321.83 900.13 269.19 900.13 269.19C900.13 269.19 900.14 237.15 872.39 247.67Z" fill="black"/>
<path d="M873.66 247.67C873.66 247.67 857.06 263.28 863.3 298.07C869.54 332.86 879.56 370.63 879.56 370.63L852.56 445.43C852.56 445.43 871.38 465.05 880.63 467.43L907.63 407.62C907.63 407.62 920.23 386.89 916.88 354.36C913.53 321.83 901.41 269.19 901.41 269.19C901.41 269.19 901.41 237.15 873.66 247.67Z" fill="#4C4C78"/>
<path opacity="0.1" d="M853.46 447.02C853.46 447.02 874.51 476.16 872.92 483.92C871.33 491.68 865.16 487.53 865.16 487.53L856.87 476.16L849.42 454.89C849.42 454.89 850.15 445.71 853.46 447.02Z" fill="black"/>
<path opacity="0.1" d="M850.91 447.02C850.91 447.02 871.91 476.16 870.37 483.92C868.83 491.68 862.61 487.53 862.61 487.53L854.31 476.16L846.87 454.89C846.87 454.89 847.6 445.71 850.91 447.02Z" fill="black"/>
<path d="M852.19 447.02C852.19 447.02 873.19 476.16 871.64 483.92C870.09 491.68 863.88 487.53 863.88 487.53L855.59 476.16L848.15 454.89C848.15 454.89 848.87 445.71 852.19 447.02Z" fill="#474463"/>
</g>
<defs>
<linearGradient id="paint0_linear" x1="768.93" y1="805.73" x2="768.93" y2="117.86" gradientUnits="userSpaceOnUse">
<stop stop-color="#808080" stop-opacity="0.25"/>
<stop offset="0.54" stop-color="#808080" stop-opacity="0.12"/>
<stop offset="1" stop-color="#808080" stop-opacity="0.1"/>
</linearGradient>
<clipPath id="clip0">
<rect width="1044.13" height="832.56" fill="white"/>
</clipPath>
</defs>
</svg>
