<svg width="108" height="53" viewBox="0 0 108 53" fill="none" xmlns="http://www.w3.org/2000/svg">
<path d="M30.74 19H28.94V4.72H36.92V6.3H30.74V11.36H36.54V12.94H30.74V19ZM43.8311 19H42.0311V6.3H37.5711V4.72H48.2711V6.3H43.8311V19ZM52.9181 8.08C53.8381 8.08 54.6248 8.28 55.2781 8.68C55.9448 9.08 56.4515 9.64667 56.7981 10.38C57.1581 11.1 57.3381 11.9467 57.3381 12.92V13.98H49.9981C50.0248 15.1933 50.3315 16.12 50.9181 16.76C51.5181 17.3867 52.3515 17.7 53.4181 17.7C54.0981 17.7 54.6981 17.64 55.2181 17.52C55.7515 17.3867 56.2981 17.2 56.8581 16.96V18.5C56.3115 18.74 55.7715 18.9133 55.2381 19.02C54.7048 19.14 54.0715 19.2 53.3381 19.2C52.3248 19.2 51.4248 18.9933 50.6381 18.58C49.8648 18.1667 49.2581 17.5533 48.8181 16.74C48.3915 15.9133 48.1781 14.9067 48.1781 13.72C48.1781 12.5467 48.3715 11.54 48.7581 10.7C49.1581 9.86 49.7115 9.21333 50.4181 8.76C51.1381 8.30667 51.9715 8.08 52.9181 8.08ZM52.8981 9.52C52.0581 9.52 51.3915 9.79333 50.8981 10.34C50.4181 10.8733 50.1315 11.62 50.0381 12.58H55.4981C55.4848 11.6733 55.2715 10.94 54.8581 10.38C54.4448 9.80667 53.7915 9.52 52.8981 9.52ZM64.3672 19.2C63.4205 19.2 62.5739 19.0067 61.8272 18.62C61.0939 18.2333 60.5139 17.6333 60.0872 16.82C59.6739 16.0067 59.4672 14.9667 59.4672 13.7C59.4672 12.38 59.6872 11.3067 60.1272 10.48C60.5672 9.65333 61.1605 9.04667 61.9072 8.66C62.6672 8.27333 63.5272 8.08 64.4872 8.08C65.0339 8.08 65.5605 8.14 66.0672 8.26C66.5739 8.36667 66.9872 8.5 67.3072 8.66L66.7672 10.12C66.4472 10 66.0739 9.88667 65.6472 9.78C65.2205 9.67333 64.8205 9.62 64.4472 9.62C62.3405 9.62 61.2872 10.9733 61.2872 13.68C61.2872 14.9733 61.5405 15.9667 62.0472 16.66C62.5672 17.34 63.3339 17.68 64.3472 17.68C64.9339 17.68 65.4472 17.62 65.8872 17.5C66.3405 17.38 66.7539 17.2333 67.1272 17.06V18.62C66.7672 18.8067 66.3672 18.9467 65.9272 19.04C65.5005 19.1467 64.9805 19.2 64.3672 19.2ZM71.4366 3.8V8.26C71.4366 8.79333 71.4032 9.29333 71.3366 9.76H71.4566C71.8032 9.21333 72.2699 8.8 72.8566 8.52C73.4566 8.24 74.1032 8.1 74.7966 8.1C76.1032 8.1 77.0832 8.41333 77.7366 9.04C78.3899 9.65333 78.7166 10.6467 78.7166 12.02V19H76.9766V12.14C76.9766 10.42 76.1766 9.56 74.5766 9.56C73.3766 9.56 72.5499 9.9 72.0966 10.58C71.6566 11.2467 71.4366 12.2067 71.4366 13.46V19H69.6766V3.8H71.4366Z" fill="white"/>
<path d="M6.46 42H4.66V29.3H0.2V27.72H10.9V29.3H6.46V42ZM15.547 31.08C16.467 31.08 17.2537 31.28 17.907 31.68C18.5737 32.08 19.0804 32.6467 19.427 33.38C19.787 34.1 19.967 34.9467 19.967 35.92V36.98H12.627C12.6537 38.1933 12.9604 39.12 13.547 39.76C14.147 40.3867 14.9804 40.7 16.047 40.7C16.727 40.7 17.327 40.64 17.847 40.52C18.3804 40.3867 18.927 40.2 19.487 39.96V41.5C18.9404 41.74 18.4004 41.9133 17.867 42.02C17.3337 42.14 16.7004 42.2 15.967 42.2C14.9537 42.2 14.0537 41.9933 13.267 41.58C12.4937 41.1667 11.887 40.5533 11.447 39.74C11.0204 38.9133 10.807 37.9067 10.807 36.72C10.807 35.5467 11.0004 34.54 11.387 33.7C11.787 32.86 12.3404 32.2133 13.047 31.76C13.767 31.3067 14.6004 31.08 15.547 31.08ZM15.527 32.52C14.687 32.52 14.0204 32.7933 13.527 33.34C13.047 33.8733 12.7604 34.62 12.667 35.58H18.127C18.1137 34.6733 17.9004 33.94 17.487 33.38C17.0737 32.8067 16.4204 32.52 15.527 32.52ZM26.9961 42.2C26.0494 42.2 25.2028 42.0067 24.4561 41.62C23.7228 41.2333 23.1428 40.6333 22.7161 39.82C22.3028 39.0067 22.0961 37.9667 22.0961 36.7C22.0961 35.38 22.3161 34.3067 22.7561 33.48C23.1961 32.6533 23.7894 32.0467 24.5361 31.66C25.2961 31.2733 26.1561 31.08 27.1161 31.08C27.6628 31.08 28.1894 31.14 28.6961 31.26C29.2028 31.3667 29.6161 31.5 29.9361 31.66L29.3961 33.12C29.0761 33 28.7028 32.8867 28.2761 32.78C27.8494 32.6733 27.4494 32.62 27.0761 32.62C24.9694 32.62 23.9161 33.9733 23.9161 36.68C23.9161 37.9733 24.1694 38.9667 24.6761 39.66C25.1961 40.34 25.9628 40.68 26.9761 40.68C27.5628 40.68 28.0761 40.62 28.5161 40.5C28.9694 40.38 29.3828 40.2333 29.7561 40.06V41.62C29.3961 41.8067 28.9961 41.9467 28.5561 42.04C28.1294 42.1467 27.6094 42.2 26.9961 42.2ZM34.0655 26.8V31.26C34.0655 31.7933 34.0321 32.2933 33.9655 32.76H34.0855C34.4321 32.2133 34.8988 31.8 35.4855 31.52C36.0855 31.24 36.7321 31.1 37.4255 31.1C38.7321 31.1 39.7121 31.4133 40.3655 32.04C41.0188 32.6533 41.3455 33.6467 41.3455 35.02V42H39.6055V35.14C39.6055 33.42 38.8055 32.56 37.2055 32.56C36.0055 32.56 35.1788 32.9 34.7255 33.58C34.2855 34.2467 34.0655 35.2067 34.0655 36.46V42H32.3055V26.8H34.0655ZM49.8288 31.08C51.1088 31.08 52.0754 31.3933 52.7288 32.02C53.3821 32.6333 53.7088 33.6333 53.7088 35.02V42H51.9688V35.14C51.9688 33.42 51.1688 32.56 49.5688 32.56C48.3821 32.56 47.5621 32.8933 47.1088 33.56C46.6554 34.2267 46.4288 35.1867 46.4288 36.44V42H44.6688V31.28H46.0888L46.3488 32.74H46.4488C46.7954 32.18 47.2754 31.7667 47.8888 31.5C48.5021 31.22 49.1488 31.08 49.8288 31.08ZM66.352 36.62C66.352 38.3933 65.8987 39.7667 64.992 40.74C64.0987 41.7133 62.8854 42.2 61.352 42.2C60.4054 42.2 59.5587 41.9867 58.812 41.56C58.0787 41.12 57.4987 40.4867 57.072 39.66C56.6454 38.82 56.432 37.8067 56.432 36.62C56.432 34.8467 56.8787 33.48 57.772 32.52C58.6654 31.56 59.8787 31.08 61.412 31.08C62.3854 31.08 63.2387 31.3 63.972 31.74C64.7187 32.1667 65.2987 32.7933 65.712 33.62C66.1387 34.4333 66.352 35.4333 66.352 36.62ZM58.252 36.62C58.252 37.8867 58.4987 38.8933 58.992 39.64C59.4987 40.3733 60.2987 40.74 61.392 40.74C62.472 40.74 63.2654 40.3733 63.772 39.64C64.2787 38.8933 64.532 37.8867 64.532 36.62C64.532 35.3533 64.2787 34.36 63.772 33.64C63.2654 32.92 62.4654 32.56 61.372 32.56C60.2787 32.56 59.4854 32.92 58.992 33.64C58.4987 34.36 58.252 35.3533 58.252 36.62ZM70.9014 42H69.1414V26.8H70.9014V42ZM83.6177 36.62C83.6177 38.3933 83.1643 39.7667 82.2577 40.74C81.3643 41.7133 80.151 42.2 78.6177 42.2C77.671 42.2 76.8243 41.9867 76.0777 41.56C75.3443 41.12 74.7643 40.4867 74.3377 39.66C73.911 38.82 73.6977 37.8067 73.6977 36.62C73.6977 34.8467 74.1443 33.48 75.0377 32.52C75.931 31.56 77.1443 31.08 78.6777 31.08C79.651 31.08 80.5043 31.3 81.2377 31.74C81.9843 32.1667 82.5643 32.7933 82.9777 33.62C83.4043 34.4333 83.6177 35.4333 83.6177 36.62ZM75.5177 36.62C75.5177 37.8867 75.7643 38.8933 76.2577 39.64C76.7643 40.3733 77.5643 40.74 78.6577 40.74C79.7377 40.74 80.531 40.3733 81.0377 39.64C81.5443 38.8933 81.7977 37.8867 81.7977 36.62C81.7977 35.3533 81.5443 34.36 81.0377 33.64C80.531 32.92 79.731 32.56 78.6377 32.56C77.5443 32.56 76.751 32.92 76.2577 33.64C75.7643 34.36 75.5177 35.3533 75.5177 36.62ZM90.207 31.08C90.9137 31.08 91.547 31.2133 92.107 31.48C92.6804 31.7467 93.167 32.1533 93.567 32.7H93.667L93.907 31.28H95.307V42.18C95.307 43.7133 94.9137 44.8667 94.127 45.64C93.3537 46.4133 92.147 46.8 90.507 46.8C88.9337 46.8 87.647 46.5733 86.647 46.12V44.5C87.7004 45.06 89.0204 45.34 90.607 45.34C91.527 45.34 92.247 45.0667 92.767 44.52C93.3004 43.9867 93.567 43.2533 93.567 42.32V41.9C93.567 41.74 93.5737 41.5133 93.587 41.22C93.6004 40.9133 93.6137 40.7 93.627 40.58H93.547C92.827 41.66 91.7204 42.2 90.227 42.2C88.8404 42.2 87.7537 41.7133 86.967 40.74C86.1937 39.7667 85.807 38.4067 85.807 36.66C85.807 34.9533 86.1937 33.6 86.967 32.6C87.7537 31.5867 88.8337 31.08 90.207 31.08ZM90.447 32.56C89.5537 32.56 88.8604 32.92 88.367 33.64C87.8737 34.3467 87.627 35.36 87.627 36.68C87.627 38 87.867 39.0133 88.347 39.72C88.8404 40.4133 89.5537 40.76 90.487 40.76C91.567 40.76 92.3537 40.4733 92.847 39.9C93.3404 39.3133 93.587 38.3733 93.587 37.08V36.66C93.587 35.1933 93.3337 34.1467 92.827 33.52C92.3204 32.88 91.527 32.56 90.447 32.56ZM97.0317 31.28H98.9117L101.232 37.38C101.432 37.9133 101.612 38.4267 101.772 38.92C101.932 39.4 102.052 39.86 102.132 40.3H102.212C102.292 39.9667 102.418 39.5333 102.592 39C102.765 38.4533 102.945 37.9067 103.132 37.36L105.312 31.28H107.212L102.592 43.48C102.218 44.4933 101.732 45.3 101.132 45.9C100.545 46.5 99.7317 46.8 98.6917 46.8C98.3717 46.8 98.0917 46.78 97.8517 46.74C97.6117 46.7133 97.4051 46.68 97.2317 46.64V45.24C97.3784 45.2667 97.5517 45.2933 97.7517 45.32C97.9651 45.3467 98.1851 45.36 98.4117 45.36C99.0251 45.36 99.5184 45.1867 99.8917 44.84C100.278 44.4933 100.578 44.0333 100.792 43.46L101.352 42.04L97.0317 31.28Z" fill="white"/>
</svg>
