<svg width="51" height="17" viewBox="0 0 51 17" fill="none" xmlns="http://www.w3.org/2000/svg">
<path d="M2.74 16H0.94V1.72H8.92V3.3H2.74V8.36H8.54V9.94H2.74V16ZM15.8311 16H14.0311V3.3H9.57109V1.72H20.2711V3.3H15.8311V16ZM24.9181 5.08C25.8381 5.08 26.6248 5.28 27.2781 5.68C27.9448 6.08 28.4515 6.64667 28.7981 7.38C29.1581 8.1 29.3381 8.94667 29.3381 9.92V10.98H21.9981C22.0248 12.1933 22.3315 13.12 22.9181 13.76C23.5181 14.3867 24.3515 14.7 25.4181 14.7C26.0981 14.7 26.6981 14.64 27.2181 14.52C27.7515 14.3867 28.2981 14.2 28.8581 13.96V15.5C28.3115 15.74 27.7715 15.9133 27.2381 16.02C26.7048 16.14 26.0715 16.2 25.3381 16.2C24.3248 16.2 23.4248 15.9933 22.6381 15.58C21.8648 15.1667 21.2581 14.5533 20.8181 13.74C20.3915 12.9133 20.1781 11.9067 20.1781 10.72C20.1781 9.54667 20.3715 8.54 20.7581 7.7C21.1581 6.86 21.7115 6.21333 22.4181 5.76C23.1381 5.30667 23.9715 5.08 24.9181 5.08ZM24.8981 6.52C24.0581 6.52 23.3915 6.79333 22.8981 7.34C22.4181 7.87333 22.1315 8.62 22.0381 9.58H27.4981C27.4848 8.67333 27.2715 7.94 26.8581 7.38C26.4448 6.80667 25.7915 6.52 24.8981 6.52ZM36.3672 16.2C35.4205 16.2 34.5739 16.0067 33.8272 15.62C33.0939 15.2333 32.5139 14.6333 32.0872 13.82C31.6739 13.0067 31.4672 11.9667 31.4672 10.7C31.4672 9.38 31.6872 8.30667 32.1272 7.48C32.5672 6.65333 33.1605 6.04667 33.9072 5.66C34.6672 5.27333 35.5272 5.08 36.4872 5.08C37.0339 5.08 37.5605 5.14 38.0672 5.26C38.5739 5.36667 38.9872 5.5 39.3072 5.66L38.7672 7.12C38.4472 7 38.0739 6.88667 37.6472 6.78C37.2205 6.67333 36.8205 6.62 36.4472 6.62C34.3405 6.62 33.2872 7.97333 33.2872 10.68C33.2872 11.9733 33.5405 12.9667 34.0472 13.66C34.5672 14.34 35.3339 14.68 36.3472 14.68C36.9339 14.68 37.4472 14.62 37.8872 14.5C38.3405 14.38 38.7539 14.2333 39.1272 14.06V15.62C38.7672 15.8067 38.3672 15.9467 37.9272 16.04C37.5005 16.1467 36.9805 16.2 36.3672 16.2ZM43.4366 0.799999V5.26C43.4366 5.79333 43.4032 6.29333 43.3366 6.76H43.4566C43.8032 6.21333 44.2699 5.8 44.8566 5.52C45.4566 5.24 46.1032 5.1 46.7966 5.1C48.1032 5.1 49.0832 5.41333 49.7366 6.04C50.3899 6.65333 50.7166 7.64667 50.7166 9.02V16H48.9766V9.14C48.9766 7.42 48.1766 6.56 46.5766 6.56C45.3766 6.56 44.5499 6.9 44.0966 7.58C43.6566 8.24667 43.4366 9.20667 43.4366 10.46V16H41.6766V0.799999H43.4366Z" fill="white"/>
</svg>
