<svg width="824" height="540" viewBox="0 0 824 540" fill="none" xmlns="http://www.w3.org/2000/svg">
<g clip-path="url(#clip0)">
<path d="M118 539.233C183.17 539.233 236 535.203 236 530.233C236 525.262 183.17 521.233 118 521.233C52.8304 521.233 0 525.262 0 530.233C0 535.203 52.8304 539.233 118 539.233Z" fill="#E6E6E6"/>
<path d="M156.218 135.461L109.142 122.622C121.713 110.76 127.181 99.5854 125.547 89.0983H156.218V135.461Z" fill="#9F616A"/>
<path d="M161.211 496.376L146.005 498.515L127.687 330.184L98.443 497.802L82.751 498.515V285.961H179.756L161.211 496.376Z" fill="#2F2E41"/>
<path d="M90.6483 530.309C93.0351 530.378 95.376 529.645 97.2983 528.229C99.2206 526.812 100.614 524.793 101.255 522.493L102.366 505.919L100.127 494.164C94.2195 489.309 88.2473 489.41 82.2146 494.164L80.291 518.785C80.1781 520.23 80.36 521.683 80.8255 523.055C81.2911 524.427 82.0306 525.69 82.9992 526.768C83.9678 527.846 85.1452 528.715 86.4601 529.324C87.775 529.933 89.1999 530.268 90.6483 530.309V530.309Z" fill="#2F2E41"/>
<path d="M153.416 530.309C155.803 530.378 158.144 529.645 160.066 528.229C161.988 526.812 163.381 524.793 164.023 522.493L165.134 505.919L162.895 494.164C156.987 489.309 151.015 489.41 144.982 494.164L143.059 518.785C142.946 520.23 143.128 521.683 143.593 523.055C144.059 524.427 144.798 525.69 145.767 526.768C146.736 527.846 147.913 528.715 149.228 529.324C150.543 529.933 151.968 530.268 153.416 530.309V530.309Z" fill="#2F2E41"/>
<path d="M149.799 111.21C164.768 111.21 176.903 99.0746 176.903 84.1054C176.903 69.1361 164.768 57.0011 149.799 57.0011C134.829 57.0011 122.694 69.1361 122.694 84.1054C122.694 99.0746 134.829 111.21 149.799 111.21Z" fill="#9F616A"/>
<path d="M184.036 289.527H80.6114C94.0162 227.403 93.9787 177.369 83.3011 136.905C82.6209 134.328 82.9159 131.592 84.1295 129.22C85.343 126.848 87.3896 125.007 89.8767 124.051L117.701 113.349C126.055 124.137 137.843 128.849 156.218 121.909L170.799 124.9C174.349 125.623 177.517 127.609 179.715 130.49C181.914 133.37 182.994 136.949 182.756 140.565C181.683 156.391 182.106 172.337 181.182 186.103C178.323 228.731 177.089 261.963 184.036 289.527Z" fill="#E6E6E6"/>
<path d="M135.533 48.4419C135.533 48.4419 151.225 30.6101 169.77 47.7286L174.763 49.1551L171.197 52.0082C171.197 52.0082 189.742 60.5674 188.315 78.3992C188.315 78.3992 185.462 77.6859 184.036 78.3992C182.609 79.1125 181.896 86.9585 181.896 86.9585C181.896 86.9585 179.756 81.2523 179.043 80.539C178.329 79.8258 168.344 88.385 151.938 75.5461C151.938 75.5461 146.946 88.385 141.239 86.9585C135.533 85.5319 127.687 86.2452 124.121 95.5177C124.121 95.5177 104.863 54.148 135.533 48.4419Z" fill="#2F2E41"/>
<path d="M189.028 273.835L179.872 286.107C178.919 287.385 178.229 288.841 177.843 290.388C177.457 291.935 177.382 293.544 177.624 295.12C177.865 296.696 178.417 298.209 179.249 299.57C180.08 300.931 181.174 302.113 182.467 303.047V303.047C184.131 304.25 186.076 305.007 188.116 305.245C190.155 305.483 192.222 305.196 194.119 304.409C196.016 303.622 197.68 302.363 198.953 300.751C200.225 299.138 201.063 297.227 201.388 295.2L204.007 278.828L209 208.214L205.434 172.551L182.609 181.11L189.028 211.781V273.835Z" fill="#9F616A"/>
<path d="M179.756 189.669L207.573 176.83L206.147 166.725C206.147 158.358 203.617 150.187 198.89 143.283C194.163 136.38 187.459 131.067 179.658 128.043L171.197 124.762L179.756 189.669Z" fill="#E6E6E6"/>
<path d="M78.4716 270.982L87.6277 283.254C88.5814 284.532 89.2713 285.987 89.6574 287.535C90.0434 289.082 90.1179 290.691 89.8765 292.267C89.6351 293.843 89.0826 295.356 88.2512 296.717C87.4197 298.078 86.3259 299.259 85.0335 300.194V300.194C83.369 301.397 81.4243 302.153 79.3845 302.392C77.3447 302.63 75.2778 302.342 73.3808 301.556C71.4838 300.769 69.8198 299.509 68.5475 297.897C67.2751 296.285 66.4368 294.374 66.1123 292.346L63.4929 275.975L58.5 205.361L62.0663 169.698L84.891 178.257L78.4716 208.928V270.982Z" fill="#9F616A"/>
<path d="M87.7441 186.816L59.9265 173.977L61.3531 163.872C61.3531 155.505 63.8828 147.334 68.61 140.43C73.3373 133.527 80.0414 128.214 87.8422 125.19L96.3033 121.909L87.7441 186.816Z" fill="#E6E6E6"/>
<path d="M816 459.733H340C338.012 459.73 336.105 458.94 334.699 457.533C333.293 456.127 332.502 454.221 332.5 452.233V245.233C332.502 243.244 333.293 241.338 334.699 239.932C336.105 238.526 338.012 237.735 340 237.733H816C817.988 237.735 819.895 238.526 821.301 239.932C822.707 241.338 823.498 243.244 823.5 245.233V452.233C823.498 454.221 822.707 456.127 821.301 457.533C819.895 458.94 817.988 459.73 816 459.733V459.733ZM340 240.733C338.807 240.734 337.663 241.208 336.819 242.052C335.976 242.896 335.501 244.039 335.5 245.233V452.233C335.501 453.426 335.976 454.569 336.819 455.413C337.663 456.257 338.807 456.731 340 456.733H816C817.193 456.731 818.337 456.257 819.181 455.413C820.024 454.569 820.499 453.426 820.5 452.233V245.233C820.499 244.039 820.024 242.896 819.181 242.052C818.337 241.208 817.193 240.734 816 240.733H340Z" fill="#007BFF" fill-opacity="0.2"/>
<path d="M359.5 263.233C358.307 263.233 357.162 263.707 356.318 264.551C355.474 265.394 355 266.539 355 267.733C355 268.926 355.474 270.071 356.318 270.915C357.162 271.758 358.307 272.233 359.5 272.233H422.5C423.693 272.233 424.838 271.758 425.682 270.915C426.526 270.071 427 268.926 427 267.733C427 266.539 426.526 265.394 425.682 264.551C424.838 263.707 423.693 263.233 422.5 263.233H359.5Z" fill="#007BFF" fill-opacity="0.12"/>
<path d="M790.79 294.528V377.977H365.96V334.04C368.901 332.15 371.861 330.27 374.847 328.452C387.601 320.647 401.253 313.348 416.13 310.643C423.167 309.331 430.376 309.241 437.443 310.377C444.909 311.61 452.054 314.182 459.129 316.763C466.106 319.317 473.1 321.951 480.397 323.432C487.508 324.828 494.808 324.972 501.968 323.858C515.628 321.809 528.462 316.319 541.242 311.352C554.103 306.359 567.354 301.641 581.272 301.02C595.013 300.399 608.584 303.645 621.622 307.672C648.205 315.876 675.348 328.044 703.496 319.698C732.078 311.237 758.368 286.812 790.044 294.058C790.344 294.113 790.611 294.281 790.79 294.528V294.528Z" fill="#007BFF" fill-opacity="0.12"/>
<path d="M790.79 295.982C790.655 296.237 790.438 296.438 790.174 296.554C789.91 296.67 789.615 296.693 789.336 296.621C785.561 295.756 781.695 295.357 777.824 295.432C746.667 295.982 722.711 321.064 692.246 324.816C664.778 328.195 638.924 314.838 613.098 307.858C599.679 304.231 585.843 302.306 572.034 304.772C558.331 307.211 545.471 312.816 532.557 317.791C520.123 322.581 507.2 327.033 493.737 327.255C478.934 327.503 465.604 321.401 451.875 316.754C444.735 314.332 437.409 312.417 429.844 312.231C422.471 312.142 415.134 313.278 408.132 315.592C393.543 320.23 380.399 328.496 367.6 336.709C367.381 336.864 367.114 336.936 366.847 336.913C366.57 336.876 366.312 336.756 366.105 336.569C365.899 336.382 365.755 336.136 365.691 335.865C365.627 335.593 365.648 335.309 365.75 335.05C365.852 334.79 366.03 334.568 366.261 334.412L366.847 334.04C369.782 332.15 372.736 330.27 375.716 328.452C388.443 320.647 402.066 313.348 416.913 310.643C423.934 309.331 431.129 309.241 438.181 310.377C445.631 311.61 452.762 314.182 459.821 316.763C466.784 319.317 473.764 321.951 481.045 323.432C488.141 324.828 495.426 324.972 502.571 323.858C516.203 321.809 529.01 316.319 541.763 311.352C554.597 306.359 567.821 301.641 581.71 301.02C595.421 300.399 608.965 303.645 621.976 307.672C648.503 315.876 675.589 328.044 703.678 319.698C732.201 311.237 758.436 286.812 790.045 294.058C790.345 294.113 790.611 294.281 790.79 294.528C790.927 294.746 791 294.998 791 295.255C791 295.512 790.927 295.764 790.79 295.982V295.982Z" fill="#007BFF"/>
<path d="M424.496 317.667C427.925 317.667 430.704 314.888 430.704 311.459C430.704 308.03 427.925 305.251 424.496 305.251C421.067 305.251 418.287 308.03 418.287 311.459C418.287 314.888 421.067 317.667 424.496 317.667Z" fill="#007BFF"/>
<path d="M581.479 309.685C584.908 309.685 587.688 306.905 587.688 303.477C587.688 300.048 584.908 297.268 581.479 297.268C578.05 297.268 575.271 300.048 575.271 303.477C575.271 306.905 578.05 309.685 581.479 309.685Z" fill="#007BFF"/>
<path d="M773.052 301.703C776.481 301.703 779.26 298.923 779.26 295.494C779.26 292.066 776.481 289.286 773.052 289.286C769.623 289.286 766.844 292.066 766.844 295.494C766.844 298.923 769.623 301.703 773.052 301.703Z" fill="#007BFF"/>
<path d="M421 413.233C419.807 413.233 418.662 413.707 417.818 414.551C416.974 415.395 416.5 416.539 416.5 417.733C416.5 418.926 416.974 420.071 417.818 420.915C418.662 421.758 419.807 422.233 421 422.233H484C485.193 422.233 486.338 421.758 487.182 420.915C488.026 420.071 488.5 418.926 488.5 417.733C488.5 416.539 488.026 415.395 487.182 414.551C486.338 413.707 485.193 413.233 484 413.233H421Z" fill="#007BFF" fill-opacity="0.12"/>
<path d="M380.5 434.233C389.889 434.233 397.5 426.621 397.5 417.233C397.5 407.844 389.889 400.233 380.5 400.233C371.111 400.233 363.5 407.844 363.5 417.233C363.5 426.621 371.111 434.233 380.5 434.233Z" fill="#007BFF"/>
<path d="M573 413.233C571.807 413.233 570.662 413.707 569.818 414.551C568.974 415.395 568.5 416.539 568.5 417.733C568.5 418.926 568.974 420.071 569.818 420.915C570.662 421.758 571.807 422.233 573 422.233H636C637.193 422.233 638.338 421.758 639.182 420.915C640.026 420.071 640.5 418.926 640.5 417.733C640.5 416.539 640.026 415.395 639.182 414.551C638.338 413.707 637.193 413.233 636 413.233H573Z" fill="#007BFF" fill-opacity="0.12"/>
<path d="M532.5 434.233C541.889 434.233 549.5 426.621 549.5 417.233C549.5 407.844 541.889 400.233 532.5 400.233C523.111 400.233 515.5 407.844 515.5 417.233C515.5 426.621 523.111 434.233 532.5 434.233Z" fill="#007BFF"/>
<path d="M725 413.233C723.807 413.233 722.662 413.707 721.818 414.551C720.974 415.395 720.5 416.539 720.5 417.733C720.5 418.926 720.974 420.071 721.818 420.915C722.662 421.758 723.807 422.233 725 422.233H788C789.193 422.233 790.338 421.758 791.182 420.915C792.026 420.071 792.5 418.926 792.5 417.733C792.5 416.539 792.026 415.395 791.182 414.551C790.338 413.707 789.193 413.233 788 413.233H725Z" fill="#007BFF" fill-opacity="0.12"/>
<path d="M684.5 434.233C693.889 434.233 701.5 426.621 701.5 417.233C701.5 407.844 693.889 400.233 684.5 400.233C675.111 400.233 667.5 407.844 667.5 417.233C667.5 426.621 675.111 434.233 684.5 434.233Z" fill="#007BFF"/>
<path d="M783.419 181.842H548.581C544.003 181.842 540.293 179.199 540.288 175.942V124.9C540.293 121.643 544.003 119 548.581 119H783.419C787.997 119 791.707 121.643 791.712 124.9V175.941C791.708 179.198 787.997 181.838 783.419 181.842ZM548.581 121.358C545.834 121.358 543.608 122.944 543.605 124.898V175.939C543.605 177.893 545.834 179.477 548.581 179.479H783.419C786.166 179.479 788.392 177.893 788.395 175.939V124.9C788.395 122.946 786.166 121.362 783.419 121.36L548.581 121.358Z" fill="#007BFF" fill-opacity="0.2"/>
<path d="M601.679 148.007C600.353 148.009 599.083 148.536 598.145 149.473C597.208 150.411 596.681 151.682 596.679 153.007V188.007C596.681 189.333 597.208 190.604 598.145 191.541C599.083 192.478 600.353 193.006 601.679 193.007H780.679C782.005 193.006 783.276 192.478 784.213 191.541C785.15 190.604 785.678 189.333 785.679 188.007V153.007C785.678 151.682 785.15 150.411 784.213 149.473C783.276 148.536 782.005 148.009 780.679 148.007H601.679Z" fill="#007BFF"/>
<path d="M626.679 182.007C632.754 182.007 637.679 177.082 637.679 171.007C637.679 164.932 632.754 160.007 626.679 160.007C620.604 160.007 615.679 164.932 615.679 171.007C615.679 177.082 620.604 182.007 626.679 182.007Z" fill="white"/>
<path d="M676.811 166.233C675.617 166.233 674.473 166.707 673.629 167.551C672.785 168.394 672.311 169.539 672.311 170.733C672.311 171.926 672.785 173.071 673.629 173.915C674.473 174.758 675.617 175.233 676.811 175.233H739.811C741.004 175.233 742.149 174.758 742.993 173.915C743.837 173.071 744.311 171.926 744.311 170.733C744.311 169.539 743.837 168.394 742.993 167.551C742.149 166.707 741.004 166.233 739.811 166.233H676.811Z" fill="white"/>
<path d="M607.419 62.842H372.581C368.003 62.842 364.293 60.199 364.288 56.942V5.89998C364.293 2.64298 368.003 -3.05176e-05 372.581 -3.05176e-05H607.419C611.997 -3.05176e-05 615.707 2.64298 615.712 5.89998V56.941C615.708 60.198 611.997 62.838 607.419 62.842ZM372.581 2.35797C369.834 2.35797 367.608 3.94396 367.605 5.89796V56.939C367.605 58.893 369.834 60.477 372.581 60.479H607.419C610.166 60.479 612.392 58.893 612.395 56.939V5.89998C612.395 3.94598 610.166 2.36197 607.419 2.35997L372.581 2.35797Z" fill="#007BFF" fill-opacity="0.2"/>
<path d="M425.679 29.0071C424.353 29.0087 423.083 29.536 422.145 30.4733C421.208 31.4107 420.681 32.6815 420.679 34.0071V69.0071C420.681 70.3327 421.208 71.6036 422.145 72.541C423.083 73.4783 424.353 74.0056 425.679 74.0071H604.679C606.005 74.0056 607.276 73.4783 608.213 72.541C609.15 71.6036 609.678 70.3327 609.679 69.0071V34.0071C609.678 32.6815 609.15 31.4107 608.213 30.4733C607.276 29.536 606.005 29.0087 604.679 29.0071H425.679Z" fill="#007BFF"/>
<path d="M450.679 63.0071C456.754 63.0071 461.679 58.0823 461.679 52.0071C461.679 45.932 456.754 41.0071 450.679 41.0071C444.604 41.0071 439.679 45.932 439.679 52.0071C439.679 58.0823 444.604 63.0071 450.679 63.0071Z" fill="white"/>
<path d="M500.811 47.2326C499.617 47.2326 498.473 47.7067 497.629 48.5506C496.785 49.3945 496.311 50.5391 496.311 51.7326C496.311 52.926 496.785 54.0706 497.629 54.9146C498.473 55.7585 499.617 56.2326 500.811 56.2326H563.811C565.004 56.2326 566.149 55.7585 566.993 54.9146C567.837 54.0706 568.311 52.926 568.311 51.7326C568.311 50.5391 567.837 49.3945 566.993 48.5506C566.149 47.7067 565.004 47.2326 563.811 47.2326H500.811Z" fill="white"/>
</g>
<defs>
<clipPath id="clip0">
<rect width="823.5" height="539.233" fill="white"/>
</clipPath>
</defs>
</svg>
